<svg width="19" height="19" viewBox="0 0 19 19" fill="none" xmlns="http://www.w3.org/2000/svg">
<path fill-rule="evenodd" clip-rule="evenodd" d="M6.64266 2.2207H12.9284C15.2452 2.2207 16.5352 3.5557 16.5352 5.8432V13.5907C16.5352 15.9157 15.2452 17.2207 12.9284 17.2207H6.64266C4.36266 17.2207 3.03516 15.9157 3.03516 13.5907V5.8432C3.03516 3.5557 4.36266 2.2207 6.64266 2.2207ZM6.84526 5.71571V5.70821H9.08701C9.41026 5.70821 9.67276 5.97071 9.67276 6.29246C9.67276 6.62321 9.41026 6.88571 9.08701 6.88571H6.84526C6.52201 6.88571 6.26026 6.62321 6.26026 6.30071C6.26026 5.97821 6.52201 5.71571 6.84526 5.71571ZM6.84526 10.2757H12.7253C13.0478 10.2757 13.3103 10.0132 13.3103 9.6907C13.3103 9.3682 13.0478 9.10495 12.7253 9.10495H6.84526C6.52201 9.10495 6.26026 9.3682 6.26026 9.6907C6.26026 10.0132 6.52201 10.2757 6.84526 10.2757ZM6.84518 13.7032H12.7252C13.0244 13.6732 13.2502 13.4175 13.2502 13.1182C13.2502 12.8107 13.0244 12.5557 12.7252 12.5257H6.84518C6.62018 12.5032 6.40268 12.6082 6.28268 12.8032C6.16268 12.9907 6.16268 13.2382 6.28268 13.4332C6.40268 13.6207 6.62018 13.7332 6.84518 13.7032Z" fill="#A6ABC8"/>
</svg>
