<svg width="19" height="19" viewBox="0 0 19 19" fill="none" xmlns="http://www.w3.org/2000/svg">
<path fill-rule="evenodd" clip-rule="evenodd" d="M6.5577 2.0708H12.8434C15.1602 2.0708 16.4502 3.4058 16.4502 5.6933V13.4408C16.4502 15.7658 15.1602 17.0708 12.8434 17.0708H6.5577C4.2777 17.0708 2.9502 15.7658 2.9502 13.4408V5.6933C2.9502 3.4058 4.2777 2.0708 6.5577 2.0708ZM6.7603 5.5658V5.5583H9.00205C9.3253 5.5583 9.5878 5.8208 9.5878 6.14255C9.5878 6.4733 9.3253 6.7358 9.00205 6.7358H6.7603C6.43705 6.7358 6.1753 6.4733 6.1753 6.1508C6.1753 5.8283 6.43705 5.5658 6.7603 5.5658ZM6.7603 10.1258H12.6403C12.9628 10.1258 13.2253 9.8633 13.2253 9.5408C13.2253 9.2183 12.9628 8.95505 12.6403 8.95505H6.7603C6.43705 8.95505 6.1753 9.2183 6.1753 9.5408C6.1753 9.8633 6.43705 10.1258 6.7603 10.1258ZM6.76022 13.5533H12.6402C12.9395 13.5233 13.1652 13.2676 13.1652 12.9683C13.1652 12.6608 12.9395 12.4058 12.6402 12.3758H6.76022C6.53522 12.3533 6.31772 12.4583 6.19772 12.6533C6.07772 12.8408 6.07772 13.0883 6.19772 13.2833C6.31772 13.4708 6.53522 13.5833 6.76022 13.5533Z" fill="#A6ABC8"/>
</svg>
