<svg width="21" height="30" viewBox="0 0 21 30" fill="none" xmlns="http://www.w3.org/2000/svg">
<path fill-rule="evenodd" clip-rule="evenodd" d="M7.0555 2.88965H13.8755C16.3892 2.88965 17.7889 5.06459 17.7889 8.7913V21.4133C17.7889 25.2011 16.3892 27.3271 13.8755 27.3271H7.0555C4.58169 27.3271 3.14136 25.2011 3.14136 21.4133V8.7913C3.14136 5.06459 4.58169 2.88965 7.0555 2.88965ZM7.27532 8.58359V8.57137H9.70762C10.0583 8.57137 10.3432 8.99903 10.3432 9.52321C10.3432 10.0621 10.0583 10.4897 9.70762 10.4897H7.27532C6.9246 10.4897 6.6406 10.0621 6.6406 9.53665C6.6406 9.01125 6.9246 8.58359 7.27532 8.58359ZM7.27532 16.0126H13.6551C14.005 16.0126 14.2898 15.5849 14.2898 15.0595C14.2898 14.5341 14.005 14.1052 13.6551 14.1052H7.27532C6.9246 14.1052 6.6406 14.5341 6.6406 15.0595C6.6406 15.5849 6.9246 16.0126 7.27532 16.0126ZM7.27523 21.5966H13.655C13.9797 21.5477 14.2247 21.131 14.2247 20.6435C14.2247 20.1425 13.9797 19.7271 13.655 19.6782H7.27523C7.03111 19.6416 6.79512 19.8126 6.66492 20.1303C6.53472 20.4358 6.53472 20.839 6.66492 21.1567C6.79512 21.4621 7.03111 21.6454 7.27523 21.5966Z" fill="#A6ABC8"/>
</svg>
