<svg width="19" height="19" viewBox="0 0 19 19" fill="none" xmlns="http://www.w3.org/2000/svg">
<path fill-rule="evenodd" clip-rule="evenodd" d="M6.72737 1.64551H13.0131C15.3299 1.64551 16.6199 2.98051 16.6199 5.26801V13.0155C16.6199 15.3405 15.3299 16.6455 13.0131 16.6455H6.72737C4.44737 16.6455 3.11987 15.3405 3.11987 13.0155V5.26801C3.11987 2.98051 4.44737 1.64551 6.72737 1.64551ZM6.92998 5.14051V5.13301H9.17173C9.49498 5.13301 9.75748 5.39551 9.75748 5.71726C9.75748 6.04801 9.49498 6.31051 9.17173 6.31051H6.92998C6.60673 6.31051 6.34498 6.04801 6.34498 5.72551C6.34498 5.40301 6.60673 5.14051 6.92998 5.14051ZM6.92998 9.70051H12.81C13.1325 9.70051 13.395 9.43801 13.395 9.11551C13.395 8.79301 13.1325 8.52976 12.81 8.52976H6.92998C6.60673 8.52976 6.34498 8.79301 6.34498 9.11551C6.34498 9.43801 6.60673 9.70051 6.92998 9.70051ZM6.92989 13.128H12.8099C13.1091 13.098 13.3349 12.8423 13.3349 12.543C13.3349 12.2355 13.1091 11.9805 12.8099 11.9505H6.92989C6.70489 11.928 6.48739 12.033 6.36739 12.228C6.24739 12.4155 6.24739 12.663 6.36739 12.858C6.48739 13.0455 6.70489 13.158 6.92989 13.128Z" fill="#A6ABC8"/>
</svg>
