<svg width="19" height="19" viewBox="0 0 19 19" fill="none" xmlns="http://www.w3.org/2000/svg">
<path fill-rule="evenodd" clip-rule="evenodd" d="M6.72737 1.646H13.0131C15.3299 1.646 16.6199 2.981 16.6199 5.2685V13.016C16.6199 15.341 15.3299 16.646 13.0131 16.646H6.72737C4.44737 16.646 3.11987 15.341 3.11987 13.016V5.2685C3.11987 2.981 4.44737 1.646 6.72737 1.646ZM6.92998 5.141V5.1335H9.17173C9.49498 5.1335 9.75748 5.396 9.75748 5.71775C9.75748 6.0485 9.49498 6.311 9.17173 6.311H6.92998C6.60673 6.311 6.34498 6.0485 6.34498 5.726C6.34498 5.4035 6.60673 5.141 6.92998 5.141ZM6.92998 9.701H12.81C13.1325 9.701 13.395 9.4385 13.395 9.116C13.395 8.7935 13.1325 8.53025 12.81 8.53025H6.92998C6.60673 8.53025 6.34498 8.7935 6.34498 9.116C6.34498 9.4385 6.60673 9.701 6.92998 9.701ZM6.92989 13.1285H12.8099C13.1091 13.0985 13.3349 12.8427 13.3349 12.5435C13.3349 12.236 13.1091 11.981 12.8099 11.951H6.92989C6.70489 11.9285 6.48739 12.0335 6.36739 12.2285C6.24739 12.416 6.24739 12.6635 6.36739 12.8585C6.48739 13.046 6.70489 13.1585 6.92989 13.1285Z" fill="#A6ABC8"/>
</svg>
