<svg width="21" height="30" viewBox="0 0 21 30" fill="none" xmlns="http://www.w3.org/2000/svg">
<path fill-rule="evenodd" clip-rule="evenodd" d="M7.05574 2.88965H13.8758C16.3895 2.88965 17.7891 5.06459 17.7891 8.7913V21.4133C17.7891 25.2011 16.3895 27.3271 13.8758 27.3271H7.05574C4.58194 27.3271 3.1416 25.2011 3.1416 21.4133V8.7913C3.1416 5.06459 4.58194 2.88965 7.05574 2.88965ZM7.27557 8.58359V8.57137H9.70786C10.0586 8.57137 10.3434 8.99903 10.3434 9.52321C10.3434 10.0621 10.0586 10.4897 9.70786 10.4897H7.27557C6.92484 10.4897 6.64084 10.0621 6.64084 9.53665C6.64084 9.01125 6.92484 8.58359 7.27557 8.58359ZM7.27557 16.0126H13.6554C14.0053 16.0126 14.2901 15.5849 14.2901 15.0595C14.2901 14.5341 14.0053 14.1052 13.6554 14.1052H7.27557C6.92484 14.1052 6.64084 14.5341 6.64084 15.0595C6.64084 15.5849 6.92484 16.0126 7.27557 16.0126ZM7.27547 21.5966H13.6553C13.98 21.5477 14.2249 21.131 14.2249 20.6435C14.2249 20.1425 13.98 19.7271 13.6553 19.6782H7.27547C7.03135 19.6416 6.79536 19.8126 6.66516 20.1303C6.53496 20.4358 6.53496 20.839 6.66516 21.1567C6.79536 21.4621 7.03135 21.6454 7.27547 21.5966Z" fill="#A6ABC8"/>
</svg>
