<svg width="21" height="30" viewBox="0 0 21 30" fill="none" xmlns="http://www.w3.org/2000/svg">
<path fill-rule="evenodd" clip-rule="evenodd" d="M6.66517 2.46484H14.2648C17.0323 2.46484 18.5947 4.82184 18.6029 8.97744V20.3897C18.6029 24.5441 17.0323 26.9023 14.2648 26.9023H6.66517C3.8976 26.9023 2.32788 24.5441 2.32788 20.3897V8.97744C2.32788 4.82184 3.8976 2.46484 6.66517 2.46484ZM10.5053 21.8438C10.856 21.8438 11.1482 21.4528 11.1807 20.9274V8.47647C11.2133 8.09769 11.092 7.71768 10.8723 7.51119C10.6436 7.30347 10.367 7.30347 10.1481 7.51119C9.92755 7.71768 9.8063 8.09769 9.8299 8.47647V20.9274C9.8714 21.4528 10.1635 21.8438 10.5053 21.8438ZM14.2494 21.8438C14.5911 21.8438 14.8833 21.4528 14.9248 20.9274V16.9196C14.9484 16.5274 14.8271 16.1621 14.6066 15.9543C14.3877 15.7466 14.111 15.7466 13.8832 15.9543C13.6627 16.1621 13.5414 16.5274 13.574 16.9196V20.9274C13.6065 21.4528 13.8986 21.8438 14.2494 21.8438ZM7.38862 20.9274C7.35607 21.4528 7.06393 21.8438 6.7132 21.8438C6.36329 21.8438 6.07034 21.4528 6.03861 20.9274V12.4842C6.01419 12.1042 6.13544 11.7267 6.35597 11.5189C6.57487 11.3112 6.85236 11.3112 7.07207 11.5189C7.29097 11.7267 7.41384 12.1042 7.38862 12.4842V20.9274Z" fill="#707FDD"/>
</svg>
