<svg width="19" height="19" viewBox="0 0 19 19" fill="none" xmlns="http://www.w3.org/2000/svg">
<path fill-rule="evenodd" clip-rule="evenodd" d="M6.72713 1.646H13.0129C15.3296 1.646 16.6196 2.981 16.6196 5.2685V13.016C16.6196 15.341 15.3296 16.646 13.0129 16.646H6.72713C4.44713 16.646 3.11963 15.341 3.11963 13.016V5.2685C3.11963 2.981 4.44713 1.646 6.72713 1.646ZM6.92973 5.141V5.1335H9.17148C9.49473 5.1335 9.75723 5.396 9.75723 5.71775C9.75723 6.0485 9.49473 6.311 9.17148 6.311H6.92973C6.60648 6.311 6.34473 6.0485 6.34473 5.726C6.34473 5.4035 6.60648 5.141 6.92973 5.141ZM6.92973 9.701H12.8097C13.1322 9.701 13.3947 9.4385 13.3947 9.116C13.3947 8.7935 13.1322 8.53025 12.8097 8.53025H6.92973C6.60648 8.53025 6.34473 8.7935 6.34473 9.116C6.34473 9.4385 6.60648 9.701 6.92973 9.701ZM6.92965 13.1285H12.8097C13.1089 13.0985 13.3347 12.8427 13.3347 12.5435C13.3347 12.236 13.1089 11.981 12.8097 11.951H6.92965C6.70465 11.9285 6.48715 12.0335 6.36715 12.2285C6.24715 12.416 6.24715 12.6635 6.36715 12.8585C6.48715 13.046 6.70465 13.1585 6.92965 13.1285Z" fill="#A6ABC8"/>
</svg>
