<svg width="19" height="19" viewBox="0 0 19 19" fill="none" xmlns="http://www.w3.org/2000/svg">
<path fill-rule="evenodd" clip-rule="evenodd" d="M6.72713 1.64551H13.0129C15.3296 1.64551 16.6196 2.98051 16.6196 5.26801V13.0155C16.6196 15.3405 15.3296 16.6455 13.0129 16.6455H6.72713C4.44713 16.6455 3.11963 15.3405 3.11963 13.0155V5.26801C3.11963 2.98051 4.44713 1.64551 6.72713 1.64551ZM6.92973 5.14051V5.13301H9.17148C9.49473 5.13301 9.75723 5.39551 9.75723 5.71726C9.75723 6.04801 9.49473 6.31051 9.17148 6.31051H6.92973C6.60648 6.31051 6.34473 6.04801 6.34473 5.72551C6.34473 5.40301 6.60648 5.14051 6.92973 5.14051ZM6.92973 9.70051H12.8097C13.1322 9.70051 13.3947 9.43801 13.3947 9.11551C13.3947 8.79301 13.1322 8.52976 12.8097 8.52976H6.92973C6.60648 8.52976 6.34473 8.79301 6.34473 9.11551C6.34473 9.43801 6.60648 9.70051 6.92973 9.70051ZM6.92965 13.128H12.8097C13.1089 13.098 13.3347 12.8423 13.3347 12.543C13.3347 12.2355 13.1089 11.9805 12.8097 11.9505H6.92965C6.70465 11.928 6.48715 12.033 6.36715 12.228C6.24715 12.4155 6.24715 12.663 6.36715 12.858C6.48715 13.0455 6.70465 13.158 6.92965 13.128Z" fill="#A6ABC8"/>
</svg>
