<svg width="19" height="19" viewBox="0 0 19 19" fill="none" xmlns="http://www.w3.org/2000/svg">
<path fill-rule="evenodd" clip-rule="evenodd" d="M6.5577 2.07129H12.8434C15.1602 2.07129 16.4502 3.40629 16.4502 5.69379V13.4413C16.4502 15.7663 15.1602 17.0713 12.8434 17.0713H6.5577C4.2777 17.0713 2.9502 15.7663 2.9502 13.4413V5.69379C2.9502 3.40629 4.2777 2.07129 6.5577 2.07129ZM6.7603 5.56629V5.55879H9.00205C9.3253 5.55879 9.5878 5.82129 9.5878 6.14304C9.5878 6.47379 9.3253 6.73629 9.00205 6.73629H6.7603C6.43705 6.73629 6.1753 6.47379 6.1753 6.15129C6.1753 5.82879 6.43705 5.56629 6.7603 5.56629ZM6.7603 10.1263H12.6403C12.9628 10.1263 13.2253 9.86379 13.2253 9.54129C13.2253 9.21879 12.9628 8.95554 12.6403 8.95554H6.7603C6.43705 8.95554 6.1753 9.21879 6.1753 9.54129C6.1753 9.86379 6.43705 10.1263 6.7603 10.1263ZM6.76022 13.5538H12.6402C12.9395 13.5238 13.1652 13.268 13.1652 12.9688C13.1652 12.6613 12.9395 12.4063 12.6402 12.3763H6.76022C6.53522 12.3538 6.31772 12.4588 6.19772 12.6538C6.07772 12.8413 6.07772 13.0888 6.19772 13.2838C6.31772 13.4713 6.53522 13.5838 6.76022 13.5538Z" fill="#A6ABC8"/>
</svg>
