<svg width="21" height="30" viewBox="0 0 21 30" fill="none" xmlns="http://www.w3.org/2000/svg">
<path fill-rule="evenodd" clip-rule="evenodd" d="M6.66541 2.46533H14.265C17.0326 2.46533 18.595 4.82233 18.6031 8.97793V20.3902C18.6031 24.5446 17.0326 26.9028 14.265 26.9028H6.66541C3.89785 26.9028 2.32812 24.5446 2.32812 20.3902V8.97793C2.32812 4.82233 3.89785 2.46533 6.66541 2.46533ZM10.5056 21.8443C10.8563 21.8443 11.1484 21.4533 11.181 20.9279V8.47695C11.2135 8.09817 11.0923 7.71817 10.8726 7.51167C10.6439 7.30396 10.3672 7.30396 10.1483 7.51167C9.92779 7.71817 9.80654 8.09817 9.83014 8.47695V20.9279C9.87164 21.4533 10.1638 21.8443 10.5056 21.8443ZM14.2496 21.8443C14.5914 21.8443 14.8835 21.4533 14.925 20.9279V16.9201C14.9486 16.5279 14.8274 16.1626 14.6069 15.9548C14.388 15.7471 14.1113 15.7471 13.8834 15.9548C13.6629 16.1626 13.5417 16.5279 13.5742 16.9201V20.9279C13.6068 21.4533 13.8989 21.8443 14.2496 21.8443ZM7.38886 20.9279C7.35631 21.4533 7.06418 21.8443 6.71345 21.8443C6.36354 21.8443 6.07059 21.4533 6.03885 20.9279V12.4847C6.01444 12.1047 6.13569 11.7271 6.35621 11.5194C6.57511 11.3117 6.8526 11.3117 7.07231 11.5194C7.29121 11.7271 7.41409 12.1047 7.38886 12.4847V20.9279Z" fill="#707FDD"/>
</svg>
