<svg width="19" height="19" viewBox="0 0 19 19" fill="none" xmlns="http://www.w3.org/2000/svg">
<path fill-rule="evenodd" clip-rule="evenodd" d="M6.72713 2.49609H13.0129C15.3296 2.49609 16.6196 3.83109 16.6196 6.11859V13.8661C16.6196 16.1911 15.3296 17.4961 13.0129 17.4961H6.72713C4.44713 17.4961 3.11963 16.1911 3.11963 13.8661V6.11859C3.11963 3.83109 4.44713 2.49609 6.72713 2.49609ZM6.92973 5.9911V5.9836H9.17148C9.49473 5.9836 9.75723 6.2461 9.75723 6.56785C9.75723 6.8986 9.49473 7.1611 9.17148 7.1611H6.92973C6.60648 7.1611 6.34473 6.8986 6.34473 6.5761C6.34473 6.2536 6.60648 5.9911 6.92973 5.9911ZM6.92973 10.5511H12.8097C13.1322 10.5511 13.3947 10.2886 13.3947 9.96609C13.3947 9.64359 13.1322 9.38034 12.8097 9.38034H6.92973C6.60648 9.38034 6.34473 9.64359 6.34473 9.96609C6.34473 10.2886 6.60648 10.5511 6.92973 10.5511ZM6.92965 13.9786H12.8097C13.1089 13.9486 13.3347 13.6928 13.3347 13.3936C13.3347 13.0861 13.1089 12.8311 12.8097 12.8011H6.92965C6.70465 12.7786 6.48715 12.8836 6.36715 13.0786C6.24715 13.2661 6.24715 13.5136 6.36715 13.7086C6.48715 13.8961 6.70465 14.0086 6.92965 13.9786Z" fill="#A6ABC8"/>
</svg>
