<svg width="21" height="30" viewBox="0 0 21 30" fill="none" xmlns="http://www.w3.org/2000/svg">
<path fill-rule="evenodd" clip-rule="evenodd" d="M2.4126 14.9754C2.4126 8.53867 5.83849 2.73828 10.5664 2.73828C15.1885 2.73828 18.6876 8.42854 18.6876 14.9387C18.6876 22.489 14.5863 27.1758 10.5501 27.1758C9.21555 27.1758 7.73452 26.6373 6.54645 25.585C6.13144 25.2056 5.78152 24.9242 5.33396 25.1444L3.69019 25.8786C3.27517 26.0744 2.90085 25.585 3.02291 24.9242L3.56812 22.183C3.65764 21.8037 3.64136 21.3999 3.51116 21.0817C2.81134 19.1482 2.4126 17.0312 2.4126 14.9754ZM9.49213 14.9754C9.49213 15.8442 9.95596 16.5417 10.5337 16.554C11.1115 16.554 11.5753 15.8442 11.5753 14.9876C11.5753 14.1188 11.1115 13.4213 10.5337 13.4213C9.9641 13.409 9.49213 14.1188 9.49213 14.9754ZM13.2436 14.9876C13.2436 15.8442 13.7074 16.554 14.2852 16.554C14.8629 16.554 15.3268 15.8442 15.3268 14.9876C15.3268 14.1188 14.8629 13.4213 14.2852 13.4213C13.7074 13.4213 13.2436 14.1188 13.2436 14.9876ZM6.78253 16.554C6.2129 16.554 5.74093 15.8442 5.74093 14.9876C5.74093 14.1188 6.20476 13.4213 6.78253 13.4213C7.36029 13.4213 7.82413 14.1188 7.82413 14.9876C7.82413 15.8442 7.36029 16.5417 6.78253 16.554Z" fill="#A6ABC8"/>
</svg>
