<svg width="19" height="19" viewBox="0 0 19 19" fill="none" xmlns="http://www.w3.org/2000/svg">
<path fill-rule="evenodd" clip-rule="evenodd" d="M6.5577 2.37109H12.8434C15.1602 2.37109 16.4502 3.70609 16.4502 5.99359V13.7411C16.4502 16.0661 15.1602 17.3711 12.8434 17.3711H6.5577C4.2777 17.3711 2.9502 16.0661 2.9502 13.7411V5.99359C2.9502 3.70609 4.2777 2.37109 6.5577 2.37109ZM6.7603 5.8661V5.8586H9.00205C9.3253 5.8586 9.5878 6.1211 9.5878 6.44285C9.5878 6.7736 9.3253 7.0361 9.00205 7.0361H6.7603C6.43705 7.0361 6.1753 6.7736 6.1753 6.4511C6.1753 6.1286 6.43705 5.8661 6.7603 5.8661ZM6.7603 10.4261H12.6403C12.9628 10.4261 13.2253 10.1636 13.2253 9.84109C13.2253 9.51859 12.9628 9.25534 12.6403 9.25534H6.7603C6.43705 9.25534 6.1753 9.51859 6.1753 9.84109C6.1753 10.1636 6.43705 10.4261 6.7603 10.4261ZM6.76022 13.8536H12.6402C12.9395 13.8236 13.1652 13.5678 13.1652 13.2686C13.1652 12.9611 12.9395 12.7061 12.6402 12.6761H6.76022C6.53522 12.6536 6.31772 12.7586 6.19772 12.9536C6.07772 13.1411 6.07772 13.3886 6.19772 13.5836C6.31772 13.7711 6.53522 13.8836 6.76022 13.8536Z" fill="#A6ABC8"/>
</svg>
