<svg width="21" height="30" viewBox="0 0 21 30" fill="none" xmlns="http://www.w3.org/2000/svg">
<path fill-rule="evenodd" clip-rule="evenodd" d="M2.4126 14.9764C2.4126 8.53965 5.83849 2.73926 10.5664 2.73926C15.1885 2.73926 18.6876 8.42951 18.6876 14.9397C18.6876 22.4899 14.5863 27.1768 10.5501 27.1768C9.21555 27.1768 7.73452 26.6383 6.54645 25.5859C6.13144 25.2066 5.78152 24.9251 5.33396 25.1454L3.69019 25.8796C3.27517 26.0754 2.90085 25.5859 3.02291 24.9251L3.56812 22.184C3.65764 21.8047 3.64136 21.4008 3.51116 21.0827C2.81134 19.1492 2.4126 17.0322 2.4126 14.9764ZM9.49213 14.9764C9.49213 15.8452 9.95596 16.5427 10.5337 16.555C11.1115 16.555 11.5753 15.8452 11.5753 14.9886C11.5753 14.1198 11.1115 13.4223 10.5337 13.4223C9.9641 13.41 9.49213 14.1198 9.49213 14.9764ZM13.2436 14.9886C13.2436 15.8452 13.7074 16.555 14.2852 16.555C14.8629 16.555 15.3268 15.8452 15.3268 14.9886C15.3268 14.1198 14.8629 13.4223 14.2852 13.4223C13.7074 13.4223 13.2436 14.1198 13.2436 14.9886ZM6.78253 16.555C6.2129 16.555 5.74093 15.8452 5.74093 14.9886C5.74093 14.1198 6.20476 13.4223 6.78253 13.4223C7.36029 13.4223 7.82413 14.1198 7.82413 14.9886C7.82413 15.8452 7.36029 16.5427 6.78253 16.555Z" fill="#A6ABC8"/>
</svg>
