<svg width="19" height="19" viewBox="0 0 19 19" fill="none" xmlns="http://www.w3.org/2000/svg">
<path fill-rule="evenodd" clip-rule="evenodd" d="M6.72737 2.49609H13.0131C15.3299 2.49609 16.6199 3.83109 16.6199 6.11859V13.8661C16.6199 16.1911 15.3299 17.4961 13.0131 17.4961H6.72737C4.44737 17.4961 3.11987 16.1911 3.11987 13.8661V6.11859C3.11987 3.83109 4.44737 2.49609 6.72737 2.49609ZM6.92998 5.9911V5.9836H9.17173C9.49498 5.9836 9.75748 6.2461 9.75748 6.56785C9.75748 6.8986 9.49498 7.1611 9.17173 7.1611H6.92998C6.60673 7.1611 6.34498 6.8986 6.34498 6.5761C6.34498 6.2536 6.60673 5.9911 6.92998 5.9911ZM6.92998 10.5511H12.81C13.1325 10.5511 13.395 10.2886 13.395 9.96609C13.395 9.64359 13.1325 9.38034 12.81 9.38034H6.92998C6.60673 9.38034 6.34498 9.64359 6.34498 9.96609C6.34498 10.2886 6.60673 10.5511 6.92998 10.5511ZM6.92989 13.9786H12.8099C13.1091 13.9486 13.3349 13.6928 13.3349 13.3936C13.3349 13.0861 13.1091 12.8311 12.8099 12.8011H6.92989C6.70489 12.7786 6.48739 12.8836 6.36739 13.0786C6.24739 13.2661 6.24739 13.5136 6.36739 13.7086C6.48739 13.8961 6.70489 14.0086 6.92989 13.9786Z" fill="#A6ABC8"/>
</svg>
