<svg width="21" height="30" viewBox="0 0 21 30" fill="none" xmlns="http://www.w3.org/2000/svg">
<path fill-rule="evenodd" clip-rule="evenodd" d="M6.66517 2.46533H14.2648C17.0323 2.46533 18.5947 4.82233 18.6029 8.97793V20.3902C18.6029 24.5446 17.0323 26.9028 14.2648 26.9028H6.66517C3.8976 26.9028 2.32788 24.5446 2.32788 20.3902V8.97793C2.32788 4.82233 3.8976 2.46533 6.66517 2.46533ZM10.5053 21.8443C10.856 21.8443 11.1482 21.4533 11.1807 20.9279V8.47695C11.2133 8.09817 11.092 7.71817 10.8723 7.51167C10.6436 7.30396 10.367 7.30396 10.1481 7.51167C9.92755 7.71817 9.8063 8.09817 9.8299 8.47695V20.9279C9.8714 21.4533 10.1635 21.8443 10.5053 21.8443ZM14.2494 21.8443C14.5911 21.8443 14.8833 21.4533 14.9248 20.9279V16.9201C14.9484 16.5279 14.8271 16.1626 14.6066 15.9548C14.3877 15.7471 14.111 15.7471 13.8832 15.9548C13.6627 16.1626 13.5414 16.5279 13.574 16.9201V20.9279C13.6065 21.4533 13.8986 21.8443 14.2494 21.8443ZM7.38862 20.9279C7.35607 21.4533 7.06393 21.8443 6.7132 21.8443C6.36329 21.8443 6.07034 21.4533 6.03861 20.9279V12.4847C6.01419 12.1047 6.13544 11.7271 6.35597 11.5194C6.57487 11.3117 6.85236 11.3117 7.07207 11.5194C7.29097 11.7271 7.41384 12.1047 7.38862 12.4847V20.9279Z" fill="#707FDD"/>
</svg>
