<svg width="21" height="22" viewBox="0 0 21 22" fill="none" xmlns="http://www.w3.org/2000/svg">
<path d="M10.4862 11.0734C13.6925 11.0734 16.2911 8.79562 16.2911 5.98518C16.2911 3.17474 13.6925 0.896973 10.4862 0.896973C7.27989 0.896973 4.6813 3.17474 4.6813 5.98518C4.6813 8.79562 7.27989 11.0734 10.4862 11.0734ZM14.5496 12.3454H13.7922C12.7854 12.7509 11.6653 12.9815 10.4862 12.9815C9.30706 12.9815 8.19143 12.7509 7.18011 12.3454H6.42276C3.05774 12.3454 0.327637 14.7385 0.327637 17.6881V19.3417C0.327637 20.3951 1.30267 21.2498 2.50447 21.2498H18.4679C19.6697 21.2498 20.6447 20.3951 20.6447 19.3417V17.6881C20.6447 14.7385 17.9146 12.3454 14.5496 12.3454Z" fill="#7166F9"/>
</svg>
