<svg width="21" height="22" viewBox="0 0 21 22" fill="none" xmlns="http://www.w3.org/2000/svg">
<path d="M10.1585 11.1099C13.3648 11.1099 15.9634 8.83595 15.9634 6.03027C15.9634 3.22459 13.3648 0.950684 10.1585 0.950684C6.95225 0.950684 4.35366 3.22459 4.35366 6.03027C4.35366 8.83595 6.95225 11.1099 10.1585 11.1099ZM14.222 12.3798H13.4646C12.4578 12.7845 11.3377 13.0147 10.1585 13.0147C8.97942 13.0147 7.8638 12.7845 6.85248 12.3798H6.09512C2.73011 12.3798 0 14.7687 0 17.7133V19.3642C0 20.4158 0.975038 21.269 2.17683 21.269H18.1402C19.342 21.269 20.3171 20.4158 20.3171 19.3642V17.7133C20.3171 14.7687 17.587 12.3798 14.222 12.3798Z" fill="#7166F9"/>
</svg>
